<?xml version="1.0" encoding="UTF-8"?><svg id="Layer_1" xmlns="http://www.w3.org/2000/svg" width="162.39" height="136.38" viewBox="0 0 162.39 136.38"><defs><style>.cls-1{fill:#fff;}</style></defs><path id="Icon_simple-spotify" class="cls-1" d="M127.25,67.49c-19.33,0-35.14,15.5-35.14,34.45s15.81,34.45,35.14,34.45,35.14-15.5,35.14-34.45-15.64-34.45-35.14-34.45Zm16.17,49.78c-.59,1.01-1.89,1.34-2.9,.75-.03-.02-.06-.04-.09-.06-8.26-4.99-18.62-6.03-30.93-3.28-1.15,.27-2.31-.41-2.63-1.55-.26-1.15,.44-2.3,1.58-2.58,13.35-2.93,24.95-1.72,34.09,3.79,1.03,.48,1.47,1.7,.99,2.72-.03,.07-.07,.14-.11,.21h0Zm4.22-9.48c-.78,1.26-2.44,1.65-3.7,.86,0,0,0,0,0,0-9.49-5.68-23.89-7.41-34.96-3.96-1.39,.41-2.87-.35-3.34-1.72-.41-1.39,.37-2.85,1.76-3.28,12.83-3.79,28.64-1.89,39.53,4.65,1.13,.69,1.49,2.17,.8,3.3-.03,.05-.06,.1-.1,.15h0Zm.35-9.64c-11.25-6.54-30.05-7.23-40.77-3.95-1.68,.49-3.45-.42-4.04-2.07-.48-1.67,.45-3.43,2.11-3.96,12.48-3.62,33.03-2.93,46.04,4.65,1.57,.9,2.12,2.9,1.23,4.48-1.14,1.32-3.03,1.67-4.56,.86h0Z"/><path id="Icon_awesome-instagram" class="cls-1" d="M35.02,16.9c-9.82,.09-17.71,8.13-17.61,17.95,.09,9.82,8.13,17.71,17.95,17.61,9.75-.09,17.61-8.03,17.61-17.78-.03-9.85-8.04-17.81-17.89-17.78-.02,0-.04,0-.06,0Zm0,29.34c-6.38-.06-11.51-5.28-11.45-11.67,.06-6.38,5.28-11.51,11.67-11.45,6.34,.06,11.45,5.22,11.45,11.56-.04,6.41-5.26,11.58-11.67,11.56Zm22.87-30.07c.02,2.31-1.84,4.2-4.15,4.22s-4.2-1.84-4.22-4.15c-.02-2.31,1.84-4.2,4.15-4.22,.01,0,.03,0,.04,0,2.3-.02,4.17,1.83,4.19,4.13,0,0,0,.01,0,.02Zm11.89,4.21c-.27-5.56-1.55-10.48-5.65-14.53C60.03,1.79,55.06,.52,49.45,.24,43.67-.08,26.35-.08,20.57,.24c-5.59,.27-10.56,1.53-14.66,5.59C1.81,9.89,.53,14.81,.25,20.36-.08,26.09-.08,43.25,.25,48.98c.26,5.55,1.55,10.47,5.66,14.53,4.11,4.05,9.06,5.32,14.67,5.6,5.78,.32,23.1,.32,28.88,0,5.61-.26,10.58-1.53,14.67-5.6,4.09-4.05,5.37-8.97,5.65-14.53,.33-5.72,.33-22.87,0-28.6h0Zm-7.47,34.74c-1.21,3.02-3.62,5.41-6.65,6.59-4.61,1.81-15.54,1.39-20.63,1.39s-16.04,.4-20.63-1.39c-3.04-1.18-5.44-3.57-6.65-6.59-1.82-4.56-1.41-15.4-1.41-20.44s-.41-15.89,1.41-20.44c1.21-3.02,3.62-5.41,6.65-6.59,4.61-1.81,15.54-1.39,20.63-1.39s16.04-.4,20.63,1.39c3.04,1.18,5.45,3.57,6.65,6.59,1.83,4.57,1.41,15.4,1.41,20.44s.42,15.89-1.41,20.44Z"/></svg>