<?xml version="1.0" encoding="UTF-8"?><svg id="Layer_1" xmlns="http://www.w3.org/2000/svg" width="76.78" height="68.89" viewBox="0 0 76.78 68.89"><defs><style>.cls-1{fill:#fff;}</style></defs><path id="Icon_awesome-youtube" class="cls-1" d="M75.18,10.78c-.88-4.24-3.49-7.59-6.79-8.72C62.4,0,38.39,0,38.39,0c0,0-24.01,0-30,2.06C5.09,3.19,2.48,6.54,1.6,10.78c-1.6,7.69-1.6,23.74-1.6,23.74,0,0,0,16.05,1.6,23.74,.89,4.25,3.49,7.45,6.79,8.58,5.99,2.06,30,2.06,30,2.06,0,0,24.01,0,30-2.06,3.3-1.13,5.91-4.34,6.79-8.58,1.6-7.69,1.6-23.74,1.6-23.74,0,0,0-16.05-1.6-23.74h0ZM30.54,49.08V19.95l20.07,14.57-20.07,14.57h0Z"/></svg>