<?xml version="1.0" encoding="UTF-8"?><svg id="Layer_1" xmlns="http://www.w3.org/2000/svg" width="70.28" height="68.89" viewBox="0 0 70.28 68.89"><defs><style>.cls-1{fill:#291611;}</style></defs><path id="Icon_simple-spotify" class="cls-1" d="M35.14,0C15.81,0,0,15.5,0,34.45s15.81,34.45,35.14,34.45,35.14-15.5,35.14-34.45S54.64,0,35.14,0Zm16.17,49.78c-.59,1.01-1.89,1.34-2.9,.75-.03-.02-.06-.04-.09-.06-8.26-4.99-18.62-6.03-30.93-3.28-1.15,.27-2.31-.41-2.63-1.55-.26-1.15,.44-2.3,1.58-2.58,13.35-2.93,24.95-1.72,34.09,3.79,1.03,.48,1.47,1.7,.99,2.72-.03,.07-.07,.14-.11,.21h0Zm4.22-9.48c-.78,1.26-2.44,1.65-3.7,.86,0,0,0,0,0,0-9.49-5.68-23.89-7.41-34.96-3.96-1.39,.41-2.87-.35-3.34-1.72-.41-1.39,.37-2.85,1.76-3.28,12.83-3.79,28.64-1.89,39.53,4.65,1.13,.69,1.49,2.17,.8,3.3-.03,.05-.06,.1-.1,.15h0Zm.35-9.64c-11.25-6.54-30.05-7.23-40.77-3.95-1.68,.49-3.45-.42-4.04-2.07-.48-1.67,.45-3.43,2.11-3.96,12.48-3.62,33.03-2.93,46.04,4.65,1.57,.9,2.12,2.9,1.23,4.48-1.14,1.32-3.03,1.67-4.56,.86h0Z"/></svg>